# xmcd
#
# Track frame offsets:
# 150
# 16170
# 34590
# 50425
# 65877
# 84987
# 103307
# 118200
# 135977
# 153260
# 168587
# 185975
# 203592
# 233475
#
# Disc length: 3162 seconds
#
# Revision: 1
# Processed by: cddbd v1.5PL3 Copyright (c) Steve Scherf et al.
# Submitted via: Easy CD Ripper 1.45
#
DISCID=b90c580e
DTITLE=Justin Guarini - Justin Guarini
DYEAR=2003
DGENRE=Pop
TTITLE0=One Heart Too Many
TTITLE1=Justin Guarini - I Saw Your Face
TTITLE2=Justin Guarini - Be A Heartbreaker
TTITLE3=Justin Guarini - Unchained Melody
TTITLE4=Justin Guarini - Sorry
TTITLE5=Justin Guarini - How Will You Know
TTITLE6=Justin Guarini - Inner Child
TTITLE7=Justin Guarini - Condition Of My Heart
TTITLE8=Justin Guarini - Doing Things
TTITLE9=Justin Guarini - If You Wanna
TTITLE10=Justin Guarini - Thinking Of You
TTITLE11=Justin Guarini - Get Here
TTITLE12=Justin Guarini - Timeless (feat Kelly Clarkson)
TTITLE13=
EXTD=
EXTT0=
EXTT1=
EXTT2=
EXTT3=
EXTT4=
EXTT5=
EXTT6=
EXTT7=
EXTT8=
EXTT9=
EXTT10=
EXTT11=
EXTT12=
EXTT13=
PLAYORDER=
